<mxfile host="Electron" agent="Mozilla/5.0 (X11; Linux x86_64) AppleWebKit/537.36 (KHTML, like Gecko) draw.io/25.0.2 Chrome/128.0.6613.186 Electron/32.2.7 Safari/537.36" version="25.0.2">
  <diagram name="Page-1" id="MqZeGh7VGKmyVvnbTxtp">
    <mxGraphModel dx="697" dy="707" grid="1" gridSize="10" guides="1" tooltips="1" connect="1" arrows="1" fold="1" page="1" pageScale="1" pageWidth="827" pageHeight="1169" background="#444444" math="0" shadow="0">
      <root>
        <mxCell id="0" />
        <mxCell id="1" parent="0" />
        <mxCell id="hCfFOBcKqYTTyQITyhyD-1" value="a" style="rounded=1;whiteSpace=wrap;html=1;fillColor=#333333;fontFamily=monospace;" parent="1" vertex="1">
          <mxGeometry x="40" y="320" width="40" height="40" as="geometry" />
        </mxCell>
        <mxCell id="hCfFOBcKqYTTyQITyhyD-14" value="b" style="rounded=1;whiteSpace=wrap;html=1;fillColor=#333333;fontFamily=monospace;" parent="1" vertex="1">
          <mxGeometry x="110" y="320" width="40" height="40" as="geometry" />
        </mxCell>
        <mxCell id="hCfFOBcKqYTTyQITyhyD-23" value="d" style="rounded=1;whiteSpace=wrap;html=1;fillColor=#333333;fontFamily=monospace;" parent="1" vertex="1">
          <mxGeometry x="180" y="320" width="40" height="40" as="geometry" />
        </mxCell>
        <mxCell id="hCfFOBcKqYTTyQITyhyD-35" value="e" style="rounded=1;whiteSpace=wrap;html=1;fillColor=#333333;fontFamily=monospace;" parent="1" vertex="1">
          <mxGeometry x="250" y="320" width="40" height="40" as="geometry" />
        </mxCell>
        <mxCell id="u9ds867P5WRZ-jsReGd3-2" style="edgeStyle=none;shape=connector;rounded=0;orthogonalLoop=1;jettySize=auto;html=1;strokeColor=default;align=center;verticalAlign=middle;fontFamily=monospace;fontSize=12;fontColor=default;labelBackgroundColor=default;endArrow=classic;" parent="1" source="u9ds867P5WRZ-jsReGd3-1" target="hCfFOBcKqYTTyQITyhyD-14" edge="1">
          <mxGeometry relative="1" as="geometry" />
        </mxCell>
        <mxCell id="u9ds867P5WRZ-jsReGd3-1" value="B = b" style="rounded=1;whiteSpace=wrap;html=1;fillColor=#333333;fontFamily=monospace;" parent="1" vertex="1">
          <mxGeometry x="105" y="240" width="50" height="40" as="geometry" />
        </mxCell>
        <mxCell id="u9ds867P5WRZ-jsReGd3-8" style="edgeStyle=none;shape=connector;rounded=0;orthogonalLoop=1;jettySize=auto;html=1;strokeColor=default;align=center;verticalAlign=middle;fontFamily=monospace;fontSize=12;fontColor=default;labelBackgroundColor=default;endArrow=classic;" parent="1" source="u9ds867P5WRZ-jsReGd3-3" target="hCfFOBcKqYTTyQITyhyD-23" edge="1">
          <mxGeometry relative="1" as="geometry" />
        </mxCell>
        <mxCell id="u9ds867P5WRZ-jsReGd3-9" style="edgeStyle=none;shape=connector;rounded=0;orthogonalLoop=1;jettySize=auto;html=1;strokeColor=default;align=center;verticalAlign=middle;fontFamily=monospace;fontSize=12;fontColor=default;labelBackgroundColor=default;endArrow=classic;" parent="1" source="u9ds867P5WRZ-jsReGd3-3" target="hCfFOBcKqYTTyQITyhyD-35" edge="1">
          <mxGeometry relative="1" as="geometry" />
        </mxCell>
        <mxCell id="u9ds867P5WRZ-jsReGd3-3" value="C = de" style="rounded=1;whiteSpace=wrap;html=1;fillColor=#333333;fontFamily=monospace;" parent="1" vertex="1">
          <mxGeometry x="170" y="240" width="60" height="40" as="geometry" />
        </mxCell>
        <mxCell id="u9ds867P5WRZ-jsReGd3-6" style="edgeStyle=none;shape=connector;rounded=0;orthogonalLoop=1;jettySize=auto;html=1;strokeColor=default;align=center;verticalAlign=middle;fontFamily=monospace;fontSize=12;fontColor=default;labelBackgroundColor=default;endArrow=classic;" parent="1" source="u9ds867P5WRZ-jsReGd3-4" target="hCfFOBcKqYTTyQITyhyD-35" edge="1">
          <mxGeometry relative="1" as="geometry" />
        </mxCell>
        <mxCell id="u9ds867P5WRZ-jsReGd3-7" style="edgeStyle=none;shape=connector;rounded=0;orthogonalLoop=1;jettySize=auto;html=1;strokeColor=default;align=center;verticalAlign=middle;fontFamily=monospace;fontSize=12;fontColor=default;labelBackgroundColor=default;endArrow=classic;" parent="1" source="u9ds867P5WRZ-jsReGd3-4" target="hCfFOBcKqYTTyQITyhyD-23" edge="1">
          <mxGeometry relative="1" as="geometry" />
        </mxCell>
        <mxCell id="u9ds867P5WRZ-jsReGd3-4" value="C = de" style="rounded=1;whiteSpace=wrap;html=1;fillColor=#333333;fontFamily=monospace;" parent="1" vertex="1">
          <mxGeometry x="240" y="240" width="60" height="40" as="geometry" />
        </mxCell>
        <mxCell id="u9ds867P5WRZ-jsReGd3-11" style="edgeStyle=orthogonalEdgeStyle;shape=connector;rounded=0;orthogonalLoop=1;jettySize=auto;html=1;strokeColor=default;align=center;verticalAlign=middle;fontFamily=monospace;fontSize=12;fontColor=default;labelBackgroundColor=default;endArrow=classic;curved=1;" parent="1" source="u9ds867P5WRZ-jsReGd3-10" target="hCfFOBcKqYTTyQITyhyD-1" edge="1">
          <mxGeometry relative="1" as="geometry" />
        </mxCell>
        <mxCell id="u9ds867P5WRZ-jsReGd3-12" style="edgeStyle=orthogonalEdgeStyle;shape=connector;rounded=0;orthogonalLoop=1;jettySize=auto;html=1;strokeColor=default;align=center;verticalAlign=middle;fontFamily=monospace;fontSize=12;fontColor=default;labelBackgroundColor=default;endArrow=classic;curved=1;" parent="1" source="u9ds867P5WRZ-jsReGd3-10" target="hCfFOBcKqYTTyQITyhyD-14" edge="1">
          <mxGeometry relative="1" as="geometry">
            <Array as="points">
              <mxPoint x="90" y="190" />
              <mxPoint x="90" y="300" />
              <mxPoint x="120" y="300" />
            </Array>
          </mxGeometry>
        </mxCell>
        <mxCell id="u9ds867P5WRZ-jsReGd3-13" style="edgeStyle=none;shape=connector;rounded=0;orthogonalLoop=1;jettySize=auto;html=1;strokeColor=default;align=center;verticalAlign=middle;fontFamily=monospace;fontSize=12;fontColor=default;labelBackgroundColor=default;endArrow=classic;" parent="1" source="u9ds867P5WRZ-jsReGd3-10" target="u9ds867P5WRZ-jsReGd3-3" edge="1">
          <mxGeometry relative="1" as="geometry" />
        </mxCell>
        <mxCell id="u9ds867P5WRZ-jsReGd3-10" value="E = abC" style="rounded=1;whiteSpace=wrap;html=1;fillColor=#333333;fontFamily=monospace;" parent="1" vertex="1">
          <mxGeometry x="100" y="160" width="60" height="40" as="geometry" />
        </mxCell>
        <mxCell id="u9ds867P5WRZ-jsReGd3-15" style="edgeStyle=orthogonalEdgeStyle;shape=connector;rounded=0;orthogonalLoop=1;jettySize=auto;html=1;strokeColor=default;align=center;verticalAlign=middle;fontFamily=monospace;fontSize=12;fontColor=default;labelBackgroundColor=default;endArrow=classic;curved=1;" parent="1" source="u9ds867P5WRZ-jsReGd3-14" target="u9ds867P5WRZ-jsReGd3-1" edge="1">
          <mxGeometry relative="1" as="geometry">
            <Array as="points">
              <mxPoint x="260" y="220" />
              <mxPoint x="130" y="220" />
            </Array>
          </mxGeometry>
        </mxCell>
        <mxCell id="u9ds867P5WRZ-jsReGd3-16" style="edgeStyle=none;shape=connector;rounded=0;orthogonalLoop=1;jettySize=auto;html=1;strokeColor=default;align=center;verticalAlign=middle;fontFamily=monospace;fontSize=12;fontColor=default;labelBackgroundColor=default;endArrow=classic;" parent="1" source="u9ds867P5WRZ-jsReGd3-14" target="u9ds867P5WRZ-jsReGd3-4" edge="1">
          <mxGeometry relative="1" as="geometry" />
        </mxCell>
        <mxCell id="u9ds867P5WRZ-jsReGd3-17" style="edgeStyle=orthogonalEdgeStyle;shape=connector;rounded=0;orthogonalLoop=1;jettySize=auto;html=1;strokeColor=default;align=center;verticalAlign=middle;fontFamily=monospace;fontSize=12;fontColor=default;labelBackgroundColor=default;endArrow=classic;curved=1;" parent="1" source="u9ds867P5WRZ-jsReGd3-14" target="hCfFOBcKqYTTyQITyhyD-1" edge="1">
          <mxGeometry relative="1" as="geometry">
            <Array as="points">
              <mxPoint x="250" y="210" />
              <mxPoint x="70" y="210" />
            </Array>
          </mxGeometry>
        </mxCell>
        <mxCell id="u9ds867P5WRZ-jsReGd3-14" value="E = aBC" style="rounded=1;whiteSpace=wrap;html=1;fillColor=#333333;fontFamily=monospace;" parent="1" vertex="1">
          <mxGeometry x="240" y="160" width="60" height="40" as="geometry" />
        </mxCell>
        <mxCell id="u9ds867P5WRZ-jsReGd3-23" style="edgeStyle=none;shape=connector;rounded=0;orthogonalLoop=1;jettySize=auto;html=1;strokeColor=default;align=center;verticalAlign=middle;fontFamily=monospace;fontSize=12;fontColor=default;labelBackgroundColor=default;endArrow=classic;" parent="1" source="u9ds867P5WRZ-jsReGd3-18" target="u9ds867P5WRZ-jsReGd3-20" edge="1">
          <mxGeometry relative="1" as="geometry" />
        </mxCell>
        <mxCell id="u9ds867P5WRZ-jsReGd3-18" value="S = E" style="rounded=1;whiteSpace=wrap;html=1;fillColor=#333333;fontFamily=monospace;" parent="1" vertex="1">
          <mxGeometry x="175" y="40" width="50" height="40" as="geometry" />
        </mxCell>
        <mxCell id="u9ds867P5WRZ-jsReGd3-21" style="edgeStyle=none;shape=connector;rounded=0;orthogonalLoop=1;jettySize=auto;html=1;strokeColor=default;align=center;verticalAlign=middle;fontFamily=monospace;fontSize=12;fontColor=default;labelBackgroundColor=default;endArrow=classic;" parent="1" source="u9ds867P5WRZ-jsReGd3-20" target="u9ds867P5WRZ-jsReGd3-10" edge="1">
          <mxGeometry relative="1" as="geometry" />
        </mxCell>
        <mxCell id="u9ds867P5WRZ-jsReGd3-22" style="edgeStyle=none;shape=connector;rounded=0;orthogonalLoop=1;jettySize=auto;html=1;strokeColor=default;align=center;verticalAlign=middle;fontFamily=monospace;fontSize=12;fontColor=default;labelBackgroundColor=default;endArrow=classic;" parent="1" source="u9ds867P5WRZ-jsReGd3-20" target="u9ds867P5WRZ-jsReGd3-14" edge="1">
          <mxGeometry relative="1" as="geometry" />
        </mxCell>
        <mxCell id="u9ds867P5WRZ-jsReGd3-20" value="E" style="ellipse;whiteSpace=wrap;html=1;aspect=fixed;rounded=1;strokeColor=default;align=center;verticalAlign=middle;fontFamily=monospace;fontSize=12;fontColor=default;labelBackgroundColor=none;fillColor=#333333;" parent="1" vertex="1">
          <mxGeometry x="180" y="100" width="40" height="40" as="geometry" />
        </mxCell>
      </root>
    </mxGraphModel>
  </diagram>
</mxfile>
